<svg xmlns="http://www.w3.org/2000/svg" xmlns:xlink="http://www.w3.org/1999/xlink" width="500" zoomAndPan="magnify" viewBox="0 0 375 374.999991" height="500" preserveAspectRatio="xMidYMid meet" version="1.0"><path fill="#000000" d="M 89.792969 117.1875 L 285.203125 117.1875 L 202.03125 19.335938 C 199.980469 16.933594 198.984375 13.886719 199.277344 10.78125 C 199.511719 7.675781 200.976562 4.804688 203.320312 2.8125 C 205.722656 0.761719 208.769531 -0.234375 211.875 0.0585938 C 214.980469 0.292969 217.851562 1.757812 219.84375 4.101562 L 315.964844 117.1875 L 343.769531 117.1875 C 352.03125 117.1875 360 120.46875 365.859375 126.328125 C 371.71875 132.1875 375 140.15625 375 148.417969 L 375 162.128906 C 375 170.390625 371.71875 178.359375 365.859375 184.21875 C 361.644531 188.429688 356.335938 191.3125 350.617188 192.597656 L 325.195312 343.652344 C 325.136719 343.710938 325.136719 343.769531 325.136719 343.828125 C 323.554688 352.5 318.984375 360.292969 312.1875 365.917969 C 305.566406 371.660156 297.070312 374.882812 288.28125 375 C 288.222656 375 288.164062 375 288.105469 375 L 91.992188 375 C 91.933594 375 91.875 375 91.816406 375 C 83.027344 374.882812 74.589844 371.71875 67.851562 366.035156 C 60.996094 360.527344 56.25 352.851562 54.433594 344.238281 C 54.433594 344.179688 54.433594 344.121094 54.375 344.0625 L 24.621094 192.652344 C 18.808594 191.394531 13.414062 188.488281 9.140625 184.21875 C 3.28125 178.359375 0 170.390625 0 162.128906 L 0 148.417969 C 0 140.15625 3.28125 132.1875 9.140625 126.328125 C 15 120.46875 22.96875 117.1875 31.230469 117.1875 L 59.035156 117.1875 L 155.15625 4.101562 C 157.148438 1.757812 160.019531 0.292969 163.125 0.0585938 C 166.230469 -0.234375 169.277344 0.761719 171.679688 2.8125 C 174.023438 4.804688 175.488281 7.675781 175.722656 10.78125 C 176.015625 13.886719 175.019531 16.933594 172.96875 19.335938 Z M 31.230469 169.921875 L 343.769531 169.921875 C 345.820312 169.921875 347.8125 169.101562 349.277344 167.636719 C 350.742188 166.171875 351.5625 164.179688 351.5625 162.128906 L 351.5625 148.417969 C 351.5625 146.367188 350.742188 144.375 349.277344 142.910156 C 347.8125 141.445312 345.820312 140.625 343.769531 140.625 L 31.230469 140.625 C 29.179688 140.625 27.1875 141.445312 25.722656 142.910156 C 24.257812 144.375 23.4375 146.367188 23.4375 148.417969 L 23.4375 162.128906 C 23.4375 164.179688 24.257812 166.171875 25.722656 167.636719 C 27.1875 169.101562 29.179688 169.921875 31.230469 169.921875 Z M 199.21875 310.546875 C 199.21875 313.652344 197.988281 316.640625 195.761719 318.808594 C 193.59375 321.035156 190.605469 322.265625 187.5 322.265625 C 184.394531 322.265625 181.40625 321.035156 179.238281 318.808594 C 177.011719 316.640625 175.78125 313.652344 175.78125 310.546875 L 175.78125 234.375 C 175.78125 231.269531 177.011719 228.28125 179.238281 226.113281 C 181.40625 223.886719 184.394531 222.65625 187.5 222.65625 C 190.605469 222.65625 193.59375 223.886719 195.761719 226.113281 C 197.988281 228.28125 199.21875 231.269531 199.21875 234.375 Z M 263.554688 312.304688 C 263.085938 315.410156 261.386719 318.164062 258.867188 319.980469 C 256.40625 321.855469 253.242188 322.617188 250.195312 322.148438 C 247.089844 321.679688 244.335938 319.980469 242.519531 317.460938 C 240.644531 315 239.882812 311.835938 240.351562 308.789062 L 252.070312 232.617188 C 252.539062 229.511719 254.238281 226.757812 256.757812 224.941406 C 259.21875 223.066406 262.382812 222.304688 265.429688 222.773438 C 268.535156 223.242188 271.289062 224.941406 273.105469 227.460938 C 274.980469 229.921875 275.742188 233.085938 275.273438 236.132812 Z M 134.648438 308.789062 C 135.117188 311.835938 134.355469 315 132.480469 317.460938 C 130.664062 319.980469 127.910156 321.679688 124.804688 322.148438 C 121.757812 322.617188 118.59375 321.855469 116.132812 319.980469 C 113.613281 318.164062 111.914062 315.410156 111.445312 312.304688 L 99.726562 236.132812 C 99.257812 233.085938 100.019531 229.921875 101.894531 227.460938 C 103.710938 224.941406 106.464844 223.242188 109.570312 222.773438 C 112.617188 222.304688 115.78125 223.066406 118.242188 224.941406 C 120.761719 226.757812 122.460938 229.511719 122.929688 232.617188 Z M 326.71875 193.359375 L 302.050781 339.667969 C 301.464844 342.949219 299.707031 345.9375 297.070312 347.988281 C 294.550781 350.214844 291.328125 351.503906 287.988281 351.5625 L 92.109375 351.5625 C 88.652344 351.503906 85.3125 350.214844 82.734375 347.929688 C 80.039062 345.820312 78.105469 342.832031 77.402344 339.433594 L 48.632812 193.359375 Z M 326.71875 193.359375 " fill-opacity="1" fill-rule="evenodd"/></svg>