<svg xmlns="http://www.w3.org/2000/svg" xmlns:xlink="http://www.w3.org/1999/xlink" width="500" zoomAndPan="magnify" viewBox="0 0 375 374.999991" height="500" preserveAspectRatio="xMidYMid meet" version="1.0"><defs><g/></defs><path fill="#aa1e2a" d="M 61.550781 181.15625 L 40.0625 162.183594 C 39.714844 161.875 39.324219 161.640625 38.890625 161.476562 C 38.457031 161.3125 38.011719 161.230469 37.546875 161.230469 C 37.085938 161.230469 36.636719 161.3125 36.203125 161.476562 C 35.773438 161.640625 35.382812 161.875 35.035156 162.183594 L 27.203125 169.09375 L 27.203125 168.308594 C 27.203125 168.0625 27.15625 167.828125 27.0625 167.601562 C 26.972656 167.375 26.835938 167.175781 26.664062 167.003906 C 26.492188 166.832031 26.292969 166.699219 26.066406 166.605469 C 25.839844 166.511719 25.605469 166.464844 25.363281 166.464844 L 20.785156 166.464844 C 20.539062 166.464844 20.304688 166.511719 20.078125 166.605469 C 19.851562 166.699219 19.652344 166.832031 19.480469 167.003906 C 19.308594 167.175781 19.175781 167.375 19.082031 167.601562 C 18.988281 167.828125 18.941406 168.0625 18.941406 168.308594 L 18.941406 176.398438 L 13.554688 181.15625 C 10.929688 183.457031 12.566406 187.796875 16.066406 187.796875 L 16.144531 187.796875 C 16.320312 187.21875 16.578125 186.683594 16.925781 186.191406 C 17.273438 185.699219 17.6875 185.273438 18.171875 184.914062 C 18.65625 184.554688 19.183594 184.277344 19.753906 184.089844 C 20.328125 183.898438 20.914062 183.804688 21.519531 183.804688 L 22.925781 183.804688 C 22.9375 183.3125 22.996094 182.824219 23.101562 182.34375 C 23.210938 181.867188 23.359375 181.398438 23.554688 180.949219 C 23.753906 180.496094 23.988281 180.070312 24.269531 179.664062 C 24.546875 179.261719 24.863281 178.886719 25.214844 178.542969 C 25.566406 178.199219 25.949219 177.894531 26.359375 177.625 C 26.769531 177.355469 27.203125 177.125 27.660156 176.941406 C 28.117188 176.753906 28.585938 176.617188 29.066406 176.519531 C 29.550781 176.425781 30.035156 176.378906 30.527344 176.378906 L 44.578125 176.378906 C 45.070312 176.378906 45.554688 176.425781 46.039062 176.519531 C 46.519531 176.617188 46.992188 176.753906 47.445312 176.941406 C 47.902344 177.125 48.335938 177.355469 48.746094 177.625 C 49.15625 177.894531 49.539062 178.199219 49.890625 178.542969 C 50.242188 178.886719 50.558594 179.261719 50.835938 179.664062 C 51.117188 180.070312 51.351562 180.496094 51.550781 180.949219 C 51.746094 181.398438 51.898438 181.867188 52.003906 182.34375 C 52.109375 182.824219 52.167969 183.3125 52.179688 183.804688 L 53.597656 183.804688 C 54.203125 183.804688 54.789062 183.898438 55.359375 184.085938 C 55.933594 184.277344 56.460938 184.550781 56.945312 184.910156 C 57.425781 185.269531 57.84375 185.695312 58.191406 186.1875 C 58.535156 186.679688 58.796875 187.214844 58.972656 187.789062 L 59.039062 187.789062 C 62.527344 187.796875 64.167969 183.46875 61.550781 181.15625 Z M 61.550781 181.15625 " fill-opacity="1" fill-rule="nonzero"/><path fill="#aa1e2a" d="M 29.304688 189.421875 L 29.304688 197.324219 C 29.304688 197.550781 29.347656 197.769531 29.433594 197.976562 C 29.523438 198.1875 29.644531 198.375 29.804688 198.535156 C 29.964844 198.695312 30.152344 198.816406 30.359375 198.90625 C 30.570312 198.992188 30.789062 199.035156 31.015625 199.035156 L 44.074219 199.035156 C 44.300781 199.035156 44.519531 198.992188 44.730469 198.90625 C 44.941406 198.816406 45.125 198.695312 45.285156 198.535156 C 45.445312 198.375 45.570312 198.1875 45.65625 197.976562 C 45.746094 197.769531 45.789062 197.550781 45.789062 197.324219 L 45.789062 189.421875 C 45.789062 188.8125 45.886719 188.214844 46.082031 187.636719 C 46.277344 187.054688 46.5625 186.523438 46.929688 186.035156 C 47.300781 185.546875 47.738281 185.132812 48.242188 184.785156 C 48.746094 184.441406 49.292969 184.1875 49.882812 184.019531 L 49.882812 183.984375 C 49.882812 183.632812 49.847656 183.289062 49.78125 182.945312 C 49.710938 182.605469 49.613281 182.273438 49.476562 181.949219 C 49.34375 181.628906 49.179688 181.324219 48.988281 181.03125 C 48.792969 180.742188 48.574219 180.472656 48.328125 180.226562 C 48.082031 179.980469 47.8125 179.761719 47.523438 179.566406 C 47.234375 179.375 46.929688 179.210938 46.605469 179.074219 C 46.285156 178.941406 45.953125 178.839844 45.609375 178.773438 C 45.269531 178.703125 44.925781 178.667969 44.574219 178.667969 L 30.527344 178.667969 C 30.175781 178.667969 29.832031 178.703125 29.488281 178.769531 C 29.144531 178.839844 28.8125 178.9375 28.492188 179.074219 C 28.167969 179.207031 27.863281 179.371094 27.570312 179.5625 C 27.28125 179.757812 27.011719 179.976562 26.765625 180.222656 C 26.519531 180.46875 26.296875 180.738281 26.105469 181.027344 C 25.910156 181.320312 25.746094 181.625 25.613281 181.949219 C 25.480469 182.269531 25.378906 182.601562 25.308594 182.945312 C 25.242188 183.289062 25.207031 183.632812 25.207031 183.984375 L 25.207031 184.015625 C 25.796875 184.183594 26.34375 184.4375 26.851562 184.785156 C 27.355469 185.128906 27.792969 185.542969 28.164062 186.03125 C 28.53125 186.519531 28.816406 187.054688 29.011719 187.632812 C 29.207031 188.214844 29.304688 188.8125 29.304688 189.421875 Z M 29.304688 189.421875 " fill-opacity="1" fill-rule="nonzero"/><path fill="#aa1e2a" d="M 53.589844 185.839844 L 51.414062 185.839844 C 50.941406 185.839844 50.484375 185.929688 50.042969 186.113281 C 49.605469 186.292969 49.21875 186.550781 48.882812 186.890625 C 48.546875 187.226562 48.285156 187.613281 48.105469 188.050781 C 47.921875 188.492188 47.832031 188.949219 47.832031 189.421875 L 47.832031 197.324219 C 47.832031 197.820312 47.738281 198.300781 47.550781 198.761719 C 47.359375 199.21875 47.089844 199.625 46.738281 199.980469 C 46.386719 200.332031 45.980469 200.601562 45.519531 200.792969 C 45.058594 200.984375 44.582031 201.078125 44.082031 201.078125 L 31.023438 201.078125 C 30.527344 201.078125 30.046875 200.980469 29.589844 200.792969 C 29.128906 200.601562 28.722656 200.328125 28.371094 199.976562 C 28.023438 199.625 27.75 199.21875 27.5625 198.757812 C 27.371094 198.296875 27.277344 197.820312 27.28125 197.324219 L 27.28125 189.421875 C 27.28125 188.949219 27.191406 188.492188 27.007812 188.050781 C 26.824219 187.613281 26.566406 187.226562 26.230469 186.890625 C 25.894531 186.550781 25.507812 186.292969 25.066406 186.113281 C 24.628906 185.929688 24.171875 185.839844 23.695312 185.839844 L 21.519531 185.839844 C 21.042969 185.839844 20.585938 185.929688 20.148438 186.113281 C 19.707031 186.292969 19.320312 186.550781 18.984375 186.890625 C 18.648438 187.226562 18.390625 187.613281 18.207031 188.050781 C 18.023438 188.492188 17.933594 188.949219 17.933594 189.421875 L 17.933594 200.726562 C 17.933594 201.222656 17.972656 201.714844 18.054688 202.199219 C 18.136719 202.6875 18.257812 203.167969 18.417969 203.636719 C 18.574219 204.101562 18.773438 204.554688 19.007812 204.992188 C 19.242188 205.425781 19.507812 205.839844 19.8125 206.230469 C 20.113281 206.625 20.445312 206.988281 20.808594 207.324219 C 21.167969 207.660156 21.554688 207.96875 21.96875 208.242188 C 22.382812 208.511719 22.8125 208.75 23.265625 208.953125 C 23.714844 209.15625 24.179688 209.320312 24.660156 209.445312 L 23.914062 211.671875 C 23.84375 211.890625 23.816406 212.117188 23.832031 212.347656 C 23.847656 212.578125 23.90625 212.796875 24.007812 213.003906 C 24.113281 213.210938 24.25 213.390625 24.425781 213.539062 C 24.597656 213.691406 24.796875 213.804688 25.015625 213.878906 C 25.234375 213.957031 25.460938 213.984375 25.691406 213.96875 C 25.925781 213.953125 26.144531 213.894531 26.355469 213.789062 C 26.5625 213.683594 26.742188 213.542969 26.894531 213.367188 C 27.046875 213.191406 27.160156 212.992188 27.230469 212.773438 L 28.253906 209.738281 L 46.875 209.738281 L 47.890625 212.773438 C 47.964844 212.992188 48.078125 213.1875 48.230469 213.363281 C 48.382812 213.535156 48.5625 213.675781 48.769531 213.777344 C 48.976562 213.878906 49.199219 213.9375 49.429688 213.953125 C 49.660156 213.972656 49.882812 213.941406 50.101562 213.867188 C 50.320312 213.792969 50.511719 213.679688 50.683594 213.527344 C 50.855469 213.375 50.992188 213.195312 51.09375 212.992188 C 51.195312 212.785156 51.253906 212.570312 51.269531 212.339844 C 51.285156 212.113281 51.257812 211.890625 51.183594 211.671875 L 50.4375 209.457031 C 50.917969 209.332031 51.382812 209.167969 51.835938 208.964844 C 52.289062 208.761719 52.722656 208.527344 53.136719 208.253906 C 53.546875 207.980469 53.9375 207.671875 54.300781 207.335938 C 54.660156 207 54.996094 206.632812 55.296875 206.242188 C 55.601562 205.847656 55.867188 205.433594 56.101562 205 C 56.335938 204.5625 56.535156 204.109375 56.691406 203.640625 C 56.851562 203.171875 56.972656 202.691406 57.054688 202.203125 C 57.132812 201.714844 57.175781 201.222656 57.171875 200.726562 L 57.171875 189.421875 C 57.171875 188.949219 57.082031 188.492188 56.902344 188.050781 C 56.71875 187.613281 56.460938 187.226562 56.125 186.890625 C 55.789062 186.550781 55.402344 186.292969 54.960938 186.113281 C 54.523438 185.929688 54.066406 185.839844 53.589844 185.839844 Z M 53.589844 185.839844 " fill-opacity="1" fill-rule="nonzero"/><g fill="#aa1e2a" fill-opacity="1"><g transform="translate(71.13703, 204.215427)"><g><path d="M 2.78125 -29.5 L 11.40625 -29.5 L 23.15625 -13.59375 L 23.15625 -29.5 L 30.828125 -29.5 L 30.828125 0 L 22.25 0 L 10.421875 -15.34375 L 10.421875 0 L 2.78125 0 Z M 2.78125 -29.5 "/></g></g></g><g fill="#aa1e2a" fill-opacity="1"><g transform="translate(104.745114, 204.215427)"><g><path d="M 13.421875 0.34375 C 11.015625 0.34375 8.875 -0.125 7 -1.0625 C 5.132812 -2.007812 3.679688 -3.316406 2.640625 -4.984375 C 1.597656 -6.660156 1.078125 -8.585938 1.078125 -10.765625 C 1.078125 -12.929688 1.601562 -14.847656 2.65625 -16.515625 C 3.71875 -18.191406 5.179688 -19.488281 7.046875 -20.40625 C 8.921875 -21.320312 11.0625 -21.78125 13.46875 -21.78125 C 15.894531 -21.78125 18.039062 -21.316406 19.90625 -20.390625 C 21.78125 -19.460938 23.234375 -18.164062 24.265625 -16.5 C 25.296875 -14.84375 25.8125 -12.929688 25.8125 -10.765625 C 25.8125 -8.554688 25.289062 -6.613281 24.25 -4.9375 C 23.207031 -3.269531 21.75 -1.972656 19.875 -1.046875 C 18 -0.117188 15.847656 0.34375 13.421875 0.34375 Z M 13.5 -6.09375 C 14.675781 -6.09375 15.640625 -6.523438 16.390625 -7.390625 C 17.148438 -8.265625 17.53125 -9.390625 17.53125 -10.765625 C 17.53125 -12.128906 17.148438 -13.25 16.390625 -14.125 C 15.640625 -15 14.675781 -15.4375 13.5 -15.4375 C 12.332031 -15.4375 11.367188 -15 10.609375 -14.125 C 9.847656 -13.25 9.46875 -12.128906 9.46875 -10.765625 C 9.46875 -9.390625 9.847656 -8.265625 10.609375 -7.390625 C 11.367188 -6.523438 12.332031 -6.09375 13.5 -6.09375 Z M 13.46875 11.921875 C 12.125 11.921875 10.984375 11.5 10.046875 10.65625 C 9.117188 9.8125 8.65625 8.773438 8.65625 7.546875 C 8.65625 6.316406 9.140625 5.285156 10.109375 4.453125 C 11.085938 3.628906 12.207031 3.21875 13.46875 3.21875 C 14.78125 3.21875 15.914062 3.644531 16.875 4.5 C 17.832031 5.351562 18.3125 6.367188 18.3125 7.546875 C 18.3125 8.804688 17.820312 9.847656 16.84375 10.671875 C 15.875 11.503906 14.75 11.921875 13.46875 11.921875 Z M 9.484375 -35.796875 L 17.40625 -35.796875 L 22.6875 -25.125 L 15.5625 -25.125 L 13.9375 -29.671875 L 13.421875 -31.296875 L 13 -29.671875 L 11.328125 -25.125 L 4.203125 -25.125 Z M 9.484375 -35.796875 "/></g></g></g><g fill="#aa1e2a" fill-opacity="1"><g transform="translate(131.623009, 204.215427)"><g><path d="M 9.6875 0.34375 C 7.289062 0.34375 5.421875 -0.425781 4.078125 -1.96875 C 2.734375 -3.507812 2.0625 -5.613281 2.0625 -8.28125 L 2.0625 -21.484375 L 11.140625 -21.484375 L 11.140625 -8.65625 C 11.140625 -8 11.316406 -7.492188 11.671875 -7.140625 C 12.035156 -6.785156 12.503906 -6.609375 13.078125 -6.609375 C 13.648438 -6.609375 14.234375 -6.78125 14.828125 -7.125 L 15.3125 -1.15625 C 14.675781 -0.664062 13.847656 -0.289062 12.828125 -0.03125 C 11.816406 0.21875 10.769531 0.34375 9.6875 0.34375 Z M 6.609375 -24.703125 C 5.265625 -24.703125 4.125 -25.117188 3.1875 -25.953125 C 2.257812 -26.796875 1.796875 -27.832031 1.796875 -29.0625 C 1.796875 -30.289062 2.28125 -31.320312 3.25 -32.15625 C 4.226562 -32.988281 5.347656 -33.40625 6.609375 -33.40625 C 7.921875 -33.40625 9.054688 -32.972656 10.015625 -32.109375 C 10.972656 -31.253906 11.453125 -30.238281 11.453125 -29.0625 C 11.453125 -27.8125 10.960938 -26.769531 9.984375 -25.9375 C 9.015625 -25.113281 7.890625 -24.703125 6.609375 -24.703125 Z M 6.609375 -24.703125 "/></g></g></g><g fill="#aa1e2a" fill-opacity="1"><g transform="translate(147.269632, 204.215427)"><g/></g></g><g fill="#aa1e2a" fill-opacity="1"><g transform="translate(155.285844, 204.215427)"><g><path d="M 11.53125 0.34375 C 9.019531 0.34375 7.0625 -0.375 5.65625 -1.8125 C 4.257812 -3.257812 3.5625 -5.253906 3.5625 -7.796875 L 3.5625 -16.15625 L 0.8125 -16.15625 L 0.8125 -21.484375 L 4.203125 -21.484375 L 8.1875 -29.578125 L 12.515625 -29.578125 L 12.515625 -21.484375 L 17.5 -21.484375 L 17.5 -16.15625 L 12.515625 -16.15625 L 12.515625 -8.875 C 12.515625 -8.15625 12.742188 -7.597656 13.203125 -7.203125 C 13.660156 -6.804688 14.304688 -6.609375 15.140625 -6.609375 C 15.910156 -6.609375 16.609375 -6.78125 17.234375 -7.125 L 17.578125 -1.109375 C 16.859375 -0.679688 15.9375 -0.332031 14.8125 -0.0625 C 13.6875 0.207031 12.59375 0.34375 11.53125 0.34375 Z M 11.53125 0.34375 "/></g></g></g><g fill="#aa1e2a" fill-opacity="1"><g transform="translate(173.933188, 204.215427)"><g><path d="M 2.140625 -28.25 L 11.1875 -29.578125 L 11.1875 -17.0625 C 11.820312 -18.582031 12.773438 -19.75 14.046875 -20.5625 C 15.316406 -21.375 16.851562 -21.78125 18.65625 -21.78125 C 21.394531 -21.78125 23.539062 -20.800781 25.09375 -18.84375 C 26.65625 -16.882812 27.4375 -14.175781 27.4375 -10.71875 L 27.4375 0 L 18.4375 0 L 18.4375 -11.625 C 18.4375 -12.851562 18.171875 -13.796875 17.640625 -14.453125 C 17.109375 -15.109375 16.375 -15.4375 15.4375 -15.4375 C 14.75 -15.4375 14.078125 -15.210938 13.421875 -14.765625 C 12.765625 -14.328125 12.226562 -13.691406 11.8125 -12.859375 C 11.394531 -12.035156 11.1875 -11.09375 11.1875 -10.03125 L 11.1875 0 L 2.140625 0 Z M 2.140625 -28.25 "/></g></g></g><g fill="#aa1e2a" fill-opacity="1"><g transform="translate(203.383126, 204.215427)"><g><path d="M 11.625 0.34375 C 9.757812 0.34375 8.019531 -0.144531 6.40625 -1.125 C 4.789062 -2.113281 3.5 -3.457031 2.53125 -5.15625 C 1.5625 -6.863281 1.078125 -8.757812 1.078125 -10.84375 C 1.078125 -12.90625 1.5625 -14.769531 2.53125 -16.4375 C 3.5 -18.113281 4.796875 -19.421875 6.421875 -20.359375 C 8.054688 -21.304688 9.789062 -21.78125 11.625 -21.78125 C 13.101562 -21.78125 14.476562 -21.363281 15.75 -20.53125 C 17.03125 -19.707031 18 -18.46875 18.65625 -16.8125 L 18.65625 -21.78125 L 27.65625 -21.78125 L 27.65625 0 L 18.65625 0 L 18.65625 -3.984375 C 17.21875 -1.097656 14.875 0.34375 11.625 0.34375 Z M 14.40625 -6.4375 C 15.550781 -6.4375 16.53125 -6.84375 17.34375 -7.65625 C 18.15625 -8.46875 18.59375 -9.429688 18.65625 -10.546875 L 18.65625 -10.890625 C 18.59375 -12.035156 18.140625 -13.003906 17.296875 -13.796875 C 16.453125 -14.597656 15.488281 -15 14.40625 -15 C 13.207031 -15 12.1875 -14.578125 11.34375 -13.734375 C 10.5 -12.898438 10.078125 -11.894531 10.078125 -10.71875 C 10.078125 -9.519531 10.503906 -8.503906 11.359375 -7.671875 C 12.210938 -6.847656 13.226562 -6.4375 14.40625 -6.4375 Z M 7.109375 -38.96875 L 19.671875 -46.46875 L 23.328125 -39.578125 L 9.046875 -35.15625 Z M 10.9375 -33.609375 L 18.859375 -33.609375 L 24.140625 -25.125 L 17.140625 -25.125 L 14.875 -29.453125 L 12.640625 -25.125 L 5.65625 -25.125 Z M 10.9375 -33.609375 "/></g></g></g><g fill="#aa1e2a" fill-opacity="1"><g transform="translate(233.218876, 204.215427)"><g><path d="M 11.53125 0.34375 C 9.019531 0.34375 7.0625 -0.375 5.65625 -1.8125 C 4.257812 -3.257812 3.5625 -5.253906 3.5625 -7.796875 L 3.5625 -16.15625 L 0.8125 -16.15625 L 0.8125 -21.484375 L 4.203125 -21.484375 L 8.1875 -29.578125 L 12.515625 -29.578125 L 12.515625 -21.484375 L 17.5 -21.484375 L 17.5 -16.15625 L 12.515625 -16.15625 L 12.515625 -8.875 C 12.515625 -8.15625 12.742188 -7.597656 13.203125 -7.203125 C 13.660156 -6.804688 14.304688 -6.609375 15.140625 -6.609375 C 15.910156 -6.609375 16.609375 -6.78125 17.234375 -7.125 L 17.578125 -1.109375 C 16.859375 -0.679688 15.9375 -0.332031 14.8125 -0.0625 C 13.6875 0.207031 12.59375 0.34375 11.53125 0.34375 Z M 11.53125 0.34375 "/></g></g></g><g fill="#aa1e2a" fill-opacity="1"><g transform="translate(251.86622, 204.215427)"><g/></g></g><g fill="#aa1e2a" fill-opacity="1"><g transform="translate(259.882432, 204.215427)"><g><path d="M 6.609375 -11.140625 L 0.515625 -21.484375 L 9.5625 -21.484375 L 11.96875 -16.421875 L 14.453125 -21.484375 L 23.234375 -21.484375 L 17.234375 -11.140625 L 23.671875 0 L 14.875 0 L 11.96875 -5.484375 L 9.125 0 L 0.078125 0 Z M 6.609375 -11.140625 "/></g></g></g><g fill="#aa1e2a" fill-opacity="1"><g transform="translate(283.673853, 204.215427)"><g><path d="M 9.6875 0.34375 C 7.289062 0.34375 5.421875 -0.425781 4.078125 -1.96875 C 2.734375 -3.507812 2.0625 -5.613281 2.0625 -8.28125 L 2.0625 -21.484375 L 11.140625 -21.484375 L 11.140625 -8.65625 C 11.140625 -8 11.316406 -7.492188 11.671875 -7.140625 C 12.035156 -6.785156 12.503906 -6.609375 13.078125 -6.609375 C 13.648438 -6.609375 14.234375 -6.78125 14.828125 -7.125 L 15.3125 -1.15625 C 14.675781 -0.664062 13.847656 -0.289062 12.828125 -0.03125 C 11.816406 0.21875 10.769531 0.34375 9.6875 0.34375 Z M 6.609375 -24.703125 C 5.265625 -24.703125 4.125 -25.117188 3.1875 -25.953125 C 2.257812 -26.796875 1.796875 -27.832031 1.796875 -29.0625 C 1.796875 -30.289062 2.28125 -31.320312 3.25 -32.15625 C 4.226562 -32.988281 5.347656 -33.40625 6.609375 -33.40625 C 7.921875 -33.40625 9.054688 -32.972656 10.015625 -32.109375 C 10.972656 -31.253906 11.453125 -30.238281 11.453125 -29.0625 C 11.453125 -27.8125 10.960938 -26.769531 9.984375 -25.9375 C 9.015625 -25.113281 7.890625 -24.703125 6.609375 -24.703125 Z M 6.609375 -24.703125 "/></g></g></g><g fill="#aa1e2a" fill-opacity="1"><g transform="translate(299.320464, 204.215427)"><g><path d="M 2.140625 -21.1875 L 10.765625 -21.1875 L 10.765625 -16.8125 C 12.421875 -20.125 15.050781 -21.78125 18.65625 -21.78125 C 21.394531 -21.78125 23.539062 -20.800781 25.09375 -18.84375 C 26.65625 -16.882812 27.4375 -14.175781 27.4375 -10.71875 L 27.4375 0 L 18.4375 0 L 18.4375 -11.625 C 18.4375 -12.851562 18.171875 -13.796875 17.640625 -14.453125 C 17.109375 -15.109375 16.375 -15.4375 15.4375 -15.4375 C 14.75 -15.4375 14.078125 -15.210938 13.421875 -14.765625 C 12.765625 -14.328125 12.226562 -13.691406 11.8125 -12.859375 C 11.394531 -12.035156 11.1875 -11.09375 11.1875 -10.03125 L 11.1875 0 L 2.140625 0 Z M 2.140625 -21.1875 "/></g></g></g><g fill="#aa1e2a" fill-opacity="1"><g transform="translate(328.770403, 204.215427)"><g><path d="M 2.140625 -28.25 L 11.1875 -29.578125 L 11.1875 -17.0625 C 11.820312 -18.582031 12.773438 -19.75 14.046875 -20.5625 C 15.316406 -21.375 16.851562 -21.78125 18.65625 -21.78125 C 21.394531 -21.78125 23.539062 -20.800781 25.09375 -18.84375 C 26.65625 -16.882812 27.4375 -14.175781 27.4375 -10.71875 L 27.4375 0 L 18.4375 0 L 18.4375 -11.625 C 18.4375 -12.851562 18.171875 -13.796875 17.640625 -14.453125 C 17.109375 -15.109375 16.375 -15.4375 15.4375 -15.4375 C 14.75 -15.4375 14.078125 -15.210938 13.421875 -14.765625 C 12.765625 -14.328125 12.226562 -13.691406 11.8125 -12.859375 C 11.394531 -12.035156 11.1875 -11.09375 11.1875 -10.03125 L 11.1875 0 L 2.140625 0 Z M 2.140625 -28.25 "/></g></g></g></svg>