<svg xmlns="http://www.w3.org/2000/svg" xmlns:xlink="http://www.w3.org/1999/xlink" width="500" zoomAndPan="magnify" viewBox="0 0 375 82.499998" height="110" preserveAspectRatio="xMidYMid meet" version="1.0"><defs><g/><clipPath id="eb65b6fc32"><path d="M 10 14.171875 L 62 14.171875 L 62 42 L 10 42 Z M 10 14.171875 " clip-rule="nonzero"/></clipPath><clipPath id="1e1fb4e7d5"><path d="M 16 39 L 56 39 L 56 67.535156 L 16 67.535156 Z M 16 39 " clip-rule="nonzero"/></clipPath></defs><g clip-path="url(#eb65b6fc32)"><path fill="#aa1e2a" d="M 60.070312 34.460938 L 38.539062 15.449219 C 38.191406 15.140625 37.800781 14.90625 37.367188 14.742188 C 36.933594 14.578125 36.484375 14.496094 36.019531 14.496094 C 35.554688 14.496094 35.105469 14.578125 34.671875 14.742188 C 34.238281 14.90625 33.847656 15.140625 33.5 15.449219 L 25.65625 22.371094 L 25.65625 21.585938 C 25.65625 21.339844 25.609375 21.105469 25.515625 20.878906 C 25.421875 20.652344 25.285156 20.453125 25.113281 20.28125 C 24.941406 20.105469 24.742188 19.972656 24.515625 19.878906 C 24.289062 19.785156 24.054688 19.738281 23.808594 19.738281 L 19.21875 19.738281 C 18.976562 19.738281 18.738281 19.785156 18.511719 19.878906 C 18.285156 19.972656 18.085938 20.105469 17.914062 20.28125 C 17.742188 20.453125 17.609375 20.652344 17.515625 20.878906 C 17.421875 21.105469 17.375 21.339844 17.375 21.585938 L 17.375 29.695312 L 11.976562 34.460938 C 9.347656 36.769531 10.988281 41.117188 14.492188 41.117188 L 14.570312 41.117188 C 14.746094 40.539062 15.007812 40 15.355469 39.507812 C 15.703125 39.011719 16.117188 38.585938 16.601562 38.226562 C 17.085938 37.867188 17.617188 37.589844 18.191406 37.398438 C 18.761719 37.210938 19.351562 37.113281 19.957031 37.113281 L 21.367188 37.113281 C 21.378906 36.621094 21.4375 36.132812 21.542969 35.652344 C 21.652344 35.171875 21.800781 34.707031 22 34.253906 C 22.195312 33.800781 22.433594 33.375 22.710938 32.96875 C 22.992188 32.5625 23.308594 32.1875 23.660156 31.84375 C 24.011719 31.5 24.394531 31.191406 24.808594 30.921875 C 25.21875 30.652344 25.65625 30.421875 26.109375 30.238281 C 26.566406 30.050781 27.035156 29.910156 27.519531 29.816406 C 28.003906 29.722656 28.492188 29.675781 28.984375 29.675781 L 43.0625 29.675781 C 43.554688 29.675781 44.042969 29.722656 44.527344 29.816406 C 45.011719 29.910156 45.480469 30.050781 45.9375 30.238281 C 46.394531 30.421875 46.828125 30.652344 47.242188 30.921875 C 47.652344 31.191406 48.035156 31.5 48.386719 31.84375 C 48.738281 32.1875 49.054688 32.5625 49.335938 32.96875 C 49.617188 33.375 49.855469 33.800781 50.050781 34.253906 C 50.246094 34.707031 50.398438 35.171875 50.503906 35.652344 C 50.609375 36.132812 50.667969 36.621094 50.679688 37.113281 L 52.105469 37.113281 C 52.707031 37.113281 53.296875 37.210938 53.871094 37.398438 C 54.441406 37.589844 54.972656 37.863281 55.457031 38.222656 C 55.941406 38.582031 56.355469 39.007812 56.703125 39.503906 C 57.050781 39.996094 57.3125 40.53125 57.488281 41.109375 L 57.554688 41.109375 C 61.050781 41.117188 62.695312 36.777344 60.070312 34.460938 Z M 60.070312 34.460938 " fill-opacity="1" fill-rule="nonzero"/></g><path fill="#aa1e2a" d="M 27.757812 42.746094 L 27.757812 50.660156 C 27.757812 50.890625 27.804688 51.109375 27.890625 51.320312 C 27.976562 51.527344 28.101562 51.714844 28.261719 51.875 C 28.421875 52.035156 28.609375 52.160156 28.816406 52.246094 C 29.027344 52.335938 29.246094 52.378906 29.472656 52.378906 L 42.5625 52.378906 C 42.789062 52.378906 43.007812 52.335938 43.21875 52.246094 C 43.425781 52.160156 43.613281 52.035156 43.773438 51.875 C 43.933594 51.714844 44.058594 51.527344 44.144531 51.320312 C 44.234375 51.109375 44.277344 50.890625 44.277344 50.660156 L 44.277344 42.746094 C 44.277344 42.132812 44.378906 41.535156 44.574219 40.953125 C 44.769531 40.375 45.050781 39.839844 45.421875 39.351562 C 45.792969 38.863281 46.230469 38.445312 46.734375 38.101562 C 47.242188 37.753906 47.789062 37.496094 48.378906 37.332031 L 48.378906 37.292969 C 48.378906 36.945312 48.34375 36.597656 48.277344 36.257812 C 48.207031 35.914062 48.109375 35.582031 47.972656 35.257812 C 47.839844 34.933594 47.675781 34.628906 47.484375 34.335938 C 47.289062 34.046875 47.070312 33.777344 46.820312 33.53125 C 46.574219 33.285156 46.304688 33.0625 46.015625 32.867188 C 45.726562 32.675781 45.417969 32.511719 45.097656 32.375 C 44.773438 32.242188 44.441406 32.140625 44.097656 32.074219 C 43.757812 32.003906 43.410156 31.96875 43.0625 31.96875 L 28.984375 31.96875 C 28.632812 31.96875 28.285156 32.003906 27.941406 32.070312 C 27.601562 32.140625 27.265625 32.238281 26.945312 32.375 C 26.621094 32.507812 26.3125 32.671875 26.023438 32.863281 C 25.730469 33.058594 25.460938 33.28125 25.214844 33.527344 C 24.96875 33.773438 24.746094 34.042969 24.550781 34.335938 C 24.355469 34.625 24.191406 34.933594 24.058594 35.253906 C 23.925781 35.578125 23.824219 35.910156 23.753906 36.253906 C 23.6875 36.597656 23.652344 36.945312 23.652344 37.292969 L 23.652344 37.328125 C 24.242188 37.496094 24.792969 37.75 25.300781 38.097656 C 25.804688 38.441406 26.246094 38.859375 26.617188 39.347656 C 26.984375 39.835938 27.269531 40.371094 27.464844 40.953125 C 27.660156 41.535156 27.757812 42.132812 27.757812 42.746094 Z M 27.757812 42.746094 " fill-opacity="1" fill-rule="nonzero"/><g clip-path="url(#1e1fb4e7d5)"><path fill="#aa1e2a" d="M 52.09375 39.152344 L 49.917969 39.152344 C 49.441406 39.152344 48.980469 39.246094 48.542969 39.425781 C 48.101562 39.609375 47.714844 39.871094 47.375 40.207031 C 47.039062 40.542969 46.78125 40.929688 46.597656 41.371094 C 46.417969 41.8125 46.324219 42.269531 46.324219 42.746094 L 46.324219 50.660156 C 46.328125 51.160156 46.230469 51.640625 46.042969 52.101562 C 45.851562 52.5625 45.582031 52.972656 45.226562 53.324219 C 44.875 53.675781 44.46875 53.949219 44.007812 54.140625 C 43.546875 54.328125 43.066406 54.425781 42.566406 54.425781 L 29.480469 54.425781 C 28.984375 54.425781 28.503906 54.328125 28.042969 54.136719 C 27.582031 53.945312 27.175781 53.675781 26.824219 53.320312 C 26.472656 52.96875 26.203125 52.5625 26.011719 52.101562 C 25.824219 51.640625 25.730469 51.160156 25.730469 50.660156 L 25.730469 42.746094 C 25.730469 42.269531 25.640625 41.8125 25.457031 41.371094 C 25.273438 40.929688 25.015625 40.542969 24.679688 40.207031 C 24.34375 39.871094 23.953125 39.609375 23.511719 39.425781 C 23.074219 39.246094 22.617188 39.152344 22.140625 39.152344 L 19.957031 39.152344 C 19.480469 39.152344 19.023438 39.246094 18.582031 39.425781 C 18.140625 39.609375 17.753906 39.871094 17.417969 40.207031 C 17.078125 40.542969 16.820312 40.929688 16.636719 41.371094 C 16.457031 41.8125 16.363281 42.269531 16.363281 42.746094 L 16.363281 54.074219 C 16.363281 54.570312 16.40625 55.0625 16.484375 55.550781 C 16.566406 56.039062 16.6875 56.519531 16.847656 56.988281 C 17.007812 57.457031 17.203125 57.910156 17.4375 58.347656 C 17.675781 58.78125 17.941406 59.199219 18.246094 59.589844 C 18.546875 59.980469 18.878906 60.347656 19.242188 60.683594 C 19.605469 61.023438 19.996094 61.328125 20.40625 61.601562 C 20.820312 61.875 21.253906 62.113281 21.707031 62.316406 C 22.160156 62.519531 22.625 62.683594 23.105469 62.808594 L 22.359375 65.039062 C 22.285156 65.261719 22.257812 65.484375 22.273438 65.71875 C 22.289062 65.949219 22.351562 66.167969 22.453125 66.375 C 22.554688 66.582031 22.695312 66.761719 22.867188 66.914062 C 23.042969 67.066406 23.242188 67.179688 23.460938 67.253906 C 23.679688 67.328125 23.90625 67.359375 24.140625 67.34375 C 24.371094 67.328125 24.59375 67.265625 24.800781 67.164062 C 25.011719 67.058594 25.191406 66.917969 25.34375 66.742188 C 25.496094 66.566406 25.609375 66.367188 25.683594 66.144531 L 26.703125 63.101562 L 45.363281 63.101562 L 46.386719 66.144531 C 46.460938 66.363281 46.574219 66.558594 46.726562 66.734375 C 46.878906 66.910156 47.058594 67.046875 47.265625 67.148438 C 47.472656 67.253906 47.691406 67.3125 47.925781 67.328125 C 48.15625 67.34375 48.382812 67.316406 48.601562 67.242188 C 48.816406 67.167969 49.011719 67.050781 49.183594 66.898438 C 49.355469 66.746094 49.492188 66.570312 49.59375 66.363281 C 49.695312 66.15625 49.753906 65.941406 49.769531 65.710938 C 49.785156 65.480469 49.757812 65.257812 49.683594 65.039062 L 48.9375 62.820312 C 49.417969 62.695312 49.886719 62.53125 50.339844 62.328125 C 50.792969 62.125 51.226562 61.886719 51.640625 61.613281 C 52.054688 61.339844 52.441406 61.035156 52.804688 60.695312 C 53.167969 60.359375 53.503906 59.992188 53.804688 59.597656 C 54.109375 59.207031 54.378906 58.789062 54.613281 58.351562 C 54.847656 57.914062 55.042969 57.460938 55.203125 56.992188 C 55.363281 56.523438 55.484375 56.042969 55.566406 55.550781 C 55.648438 55.0625 55.6875 54.570312 55.6875 54.074219 L 55.6875 42.746094 C 55.6875 42.269531 55.59375 41.8125 55.414062 41.371094 C 55.230469 40.929688 54.972656 40.542969 54.632812 40.207031 C 54.296875 39.871094 53.910156 39.609375 53.46875 39.425781 C 53.03125 39.246094 52.570312 39.152344 52.09375 39.152344 Z M 52.09375 39.152344 " fill-opacity="1" fill-rule="nonzero"/></g><g fill="#aa1e2a" fill-opacity="1"><g transform="translate(70.096379, 58.028952)"><g><path d="M 2.8125 -29.765625 L 11.515625 -29.765625 L 23.359375 -13.71875 L 23.359375 -29.765625 L 31.109375 -29.765625 L 31.109375 0 L 22.453125 0 L 10.515625 -15.484375 L 10.515625 0 L 2.8125 0 Z M 2.8125 -29.765625 "/></g></g></g><g fill="#aa1e2a" fill-opacity="1"><g transform="translate(104.004154, 58.028952)"><g><path d="M 13.546875 0.34375 C 11.117188 0.34375 8.957031 -0.128906 7.0625 -1.078125 C 5.175781 -2.035156 3.707031 -3.359375 2.65625 -5.046875 C 1.601562 -6.734375 1.078125 -8.671875 1.078125 -10.859375 C 1.078125 -13.046875 1.609375 -14.984375 2.671875 -16.671875 C 3.742188 -18.359375 5.222656 -19.664062 7.109375 -20.59375 C 9.003906 -21.519531 11.160156 -21.984375 13.578125 -21.984375 C 16.035156 -21.984375 18.207031 -21.515625 20.09375 -20.578125 C 21.988281 -19.640625 23.453125 -18.332031 24.484375 -16.65625 C 25.523438 -14.976562 26.046875 -13.046875 26.046875 -10.859375 C 26.046875 -8.640625 25.519531 -6.6875 24.46875 -5 C 23.414062 -3.3125 21.941406 -2 20.046875 -1.0625 C 18.160156 -0.125 15.992188 0.34375 13.546875 0.34375 Z M 13.625 -6.140625 C 14.8125 -6.140625 15.785156 -6.578125 16.546875 -7.453125 C 17.316406 -8.335938 17.703125 -9.472656 17.703125 -10.859375 C 17.703125 -12.242188 17.316406 -13.375 16.546875 -14.25 C 15.785156 -15.132812 14.8125 -15.578125 13.625 -15.578125 C 12.445312 -15.578125 11.472656 -15.132812 10.703125 -14.25 C 9.941406 -13.375 9.5625 -12.242188 9.5625 -10.859375 C 9.5625 -9.472656 9.941406 -8.335938 10.703125 -7.453125 C 11.472656 -6.578125 12.445312 -6.140625 13.625 -6.140625 Z M 13.578125 12.03125 C 12.222656 12.03125 11.078125 11.601562 10.140625 10.75 C 9.203125 9.894531 8.734375 8.847656 8.734375 7.609375 C 8.734375 6.367188 9.222656 5.332031 10.203125 4.5 C 11.179688 3.664062 12.304688 3.25 13.578125 3.25 C 14.910156 3.25 16.054688 3.679688 17.015625 4.546875 C 17.984375 5.410156 18.46875 6.429688 18.46875 7.609375 C 18.46875 8.878906 17.976562 9.929688 17 10.765625 C 16.019531 11.609375 14.878906 12.03125 13.578125 12.03125 Z M 9.5625 -36.125 L 17.5625 -36.125 L 22.890625 -25.359375 L 15.703125 -25.359375 L 14.0625 -29.9375 L 13.546875 -31.578125 L 13.109375 -29.9375 L 11.421875 -25.359375 L 4.234375 -25.359375 Z M 9.5625 -36.125 "/></g></g></g><g fill="#aa1e2a" fill-opacity="1"><g transform="translate(131.12173, 58.028952)"><g><path d="M 9.78125 0.34375 C 7.351562 0.34375 5.460938 -0.429688 4.109375 -1.984375 C 2.753906 -3.546875 2.078125 -5.664062 2.078125 -8.34375 L 2.078125 -21.671875 L 11.25 -21.671875 L 11.25 -8.734375 C 11.25 -8.078125 11.425781 -7.566406 11.78125 -7.203125 C 12.144531 -6.835938 12.617188 -6.65625 13.203125 -6.65625 C 13.773438 -6.65625 14.363281 -6.832031 14.96875 -7.1875 L 15.453125 -1.171875 C 14.816406 -0.679688 13.984375 -0.304688 12.953125 -0.046875 C 11.929688 0.210938 10.875 0.34375 9.78125 0.34375 Z M 6.65625 -24.921875 C 5.300781 -24.921875 4.15625 -25.34375 3.21875 -26.1875 C 2.28125 -27.039062 1.8125 -28.085938 1.8125 -29.328125 C 1.8125 -30.566406 2.300781 -31.601562 3.28125 -32.4375 C 4.257812 -33.28125 5.382812 -33.703125 6.65625 -33.703125 C 7.988281 -33.703125 9.132812 -33.269531 10.09375 -32.40625 C 11.0625 -31.539062 11.546875 -30.515625 11.546875 -29.328125 C 11.546875 -28.066406 11.054688 -27.015625 10.078125 -26.171875 C 9.097656 -25.335938 7.957031 -24.921875 6.65625 -24.921875 Z M 6.65625 -24.921875 "/></g></g></g><g fill="#aa1e2a" fill-opacity="1"><g transform="translate(146.907882, 58.028952)"><g/></g></g><g fill="#aa1e2a" fill-opacity="1"><g transform="translate(154.995573, 58.028952)"><g><path d="M 11.640625 0.34375 C 9.097656 0.34375 7.117188 -0.382812 5.703125 -1.84375 C 4.296875 -3.300781 3.59375 -5.3125 3.59375 -7.875 L 3.59375 -16.3125 L 0.828125 -16.3125 L 0.828125 -21.671875 L 4.234375 -21.671875 L 8.265625 -29.859375 L 12.640625 -29.859375 L 12.640625 -21.671875 L 17.65625 -21.671875 L 17.65625 -16.3125 L 12.640625 -16.3125 L 12.640625 -8.953125 C 12.640625 -8.234375 12.867188 -7.671875 13.328125 -7.265625 C 13.785156 -6.859375 14.429688 -6.65625 15.265625 -6.65625 C 16.046875 -6.65625 16.753906 -6.832031 17.390625 -7.1875 L 17.734375 -1.125 C 17.015625 -0.6875 16.082031 -0.332031 14.9375 -0.0625 C 13.800781 0.207031 12.703125 0.34375 11.640625 0.34375 Z M 11.640625 0.34375 "/></g></g></g><g fill="#aa1e2a" fill-opacity="1"><g transform="translate(173.809202, 58.028952)"><g><path d="M 2.15625 -28.515625 L 11.296875 -29.859375 L 11.296875 -17.21875 C 11.929688 -18.75 12.890625 -19.925781 14.171875 -20.75 C 15.453125 -21.570312 17.003906 -21.984375 18.828125 -21.984375 C 21.585938 -21.984375 23.753906 -20.992188 25.328125 -19.015625 C 26.898438 -17.035156 27.6875 -14.300781 27.6875 -10.8125 L 27.6875 0 L 18.609375 0 L 18.609375 -11.71875 C 18.609375 -12.957031 18.335938 -13.910156 17.796875 -14.578125 C 17.265625 -15.242188 16.523438 -15.578125 15.578125 -15.578125 C 14.878906 -15.578125 14.195312 -15.351562 13.53125 -14.90625 C 12.875 -14.457031 12.335938 -13.8125 11.921875 -12.96875 C 11.503906 -12.132812 11.296875 -11.1875 11.296875 -10.125 L 11.296875 0 L 2.15625 0 Z M 2.15625 -28.515625 "/></g></g></g><g fill="#aa1e2a" fill-opacity="1"><g transform="translate(203.521758, 58.028952)"><g><path d="M 11.71875 0.34375 C 9.84375 0.34375 8.09375 -0.148438 6.46875 -1.140625 C 4.84375 -2.140625 3.535156 -3.492188 2.546875 -5.203125 C 1.566406 -6.921875 1.078125 -8.835938 1.078125 -10.953125 C 1.078125 -13.023438 1.566406 -14.90625 2.546875 -16.59375 C 3.535156 -18.28125 4.847656 -19.597656 6.484375 -20.546875 C 8.128906 -21.503906 9.875 -21.984375 11.71875 -21.984375 C 13.21875 -21.984375 14.609375 -21.5625 15.890625 -20.71875 C 17.179688 -19.882812 18.160156 -18.628906 18.828125 -16.953125 L 18.828125 -21.984375 L 27.90625 -21.984375 L 27.90625 0 L 18.828125 0 L 18.828125 -4.03125 C 17.378906 -1.113281 15.007812 0.34375 11.71875 0.34375 Z M 14.53125 -6.484375 C 15.6875 -6.484375 16.675781 -6.894531 17.5 -7.71875 C 18.320312 -8.539062 18.765625 -9.515625 18.828125 -10.640625 L 18.828125 -10.984375 C 18.765625 -12.140625 18.304688 -13.117188 17.453125 -13.921875 C 16.609375 -14.734375 15.632812 -15.140625 14.53125 -15.140625 C 13.320312 -15.140625 12.289062 -14.710938 11.4375 -13.859375 C 10.59375 -13.015625 10.171875 -12 10.171875 -10.8125 C 10.171875 -9.601562 10.601562 -8.578125 11.46875 -7.734375 C 12.332031 -6.898438 13.351562 -6.484375 14.53125 -6.484375 Z M 7.171875 -39.328125 L 19.859375 -46.90625 L 23.53125 -39.9375 L 9.125 -35.484375 Z M 11.03125 -33.921875 L 19.03125 -33.921875 L 24.359375 -25.359375 L 17.296875 -25.359375 L 15.015625 -29.71875 L 12.765625 -25.359375 L 5.703125 -25.359375 Z M 11.03125 -33.921875 "/></g></g></g><g fill="#aa1e2a" fill-opacity="1"><g transform="translate(233.623557, 58.028952)"><g><path d="M 11.640625 0.34375 C 9.097656 0.34375 7.117188 -0.382812 5.703125 -1.84375 C 4.296875 -3.300781 3.59375 -5.3125 3.59375 -7.875 L 3.59375 -16.3125 L 0.828125 -16.3125 L 0.828125 -21.671875 L 4.234375 -21.671875 L 8.265625 -29.859375 L 12.640625 -29.859375 L 12.640625 -21.671875 L 17.65625 -21.671875 L 17.65625 -16.3125 L 12.640625 -16.3125 L 12.640625 -8.953125 C 12.640625 -8.234375 12.867188 -7.671875 13.328125 -7.265625 C 13.785156 -6.859375 14.429688 -6.65625 15.265625 -6.65625 C 16.046875 -6.65625 16.753906 -6.832031 17.390625 -7.1875 L 17.734375 -1.125 C 17.015625 -0.6875 16.082031 -0.332031 14.9375 -0.0625 C 13.800781 0.207031 12.703125 0.34375 11.640625 0.34375 Z M 11.640625 0.34375 "/></g></g></g><g fill="#aa1e2a" fill-opacity="1"><g transform="translate(252.437187, 58.028952)"><g/></g></g><g fill="#aa1e2a" fill-opacity="1"><g transform="translate(260.524877, 58.028952)"><g><path d="M 6.65625 -11.25 L 0.515625 -21.671875 L 9.640625 -21.671875 L 12.078125 -16.578125 L 14.578125 -21.671875 L 23.453125 -21.671875 L 17.390625 -11.25 L 23.875 0 L 15.015625 0 L 12.078125 -5.53125 L 9.21875 0 L 0.09375 0 Z M 6.65625 -11.25 "/></g></g></g><g fill="#aa1e2a" fill-opacity="1"><g transform="translate(284.528467, 58.028952)"><g><path d="M 9.78125 0.34375 C 7.351562 0.34375 5.460938 -0.429688 4.109375 -1.984375 C 2.753906 -3.546875 2.078125 -5.664062 2.078125 -8.34375 L 2.078125 -21.671875 L 11.25 -21.671875 L 11.25 -8.734375 C 11.25 -8.078125 11.425781 -7.566406 11.78125 -7.203125 C 12.144531 -6.835938 12.617188 -6.65625 13.203125 -6.65625 C 13.773438 -6.65625 14.363281 -6.832031 14.96875 -7.1875 L 15.453125 -1.171875 C 14.816406 -0.679688 13.984375 -0.304688 12.953125 -0.046875 C 11.929688 0.210938 10.875 0.34375 9.78125 0.34375 Z M 6.65625 -24.921875 C 5.300781 -24.921875 4.15625 -25.34375 3.21875 -26.1875 C 2.28125 -27.039062 1.8125 -28.085938 1.8125 -29.328125 C 1.8125 -30.566406 2.300781 -31.601562 3.28125 -32.4375 C 4.257812 -33.28125 5.382812 -33.703125 6.65625 -33.703125 C 7.988281 -33.703125 9.132812 -33.269531 10.09375 -32.40625 C 11.0625 -31.539062 11.546875 -30.515625 11.546875 -29.328125 C 11.546875 -28.066406 11.054688 -27.015625 10.078125 -26.171875 C 9.097656 -25.335938 7.957031 -24.921875 6.65625 -24.921875 Z M 6.65625 -24.921875 "/></g></g></g><g fill="#aa1e2a" fill-opacity="1"><g transform="translate(300.31462, 58.028952)"><g><path d="M 2.15625 -21.375 L 10.859375 -21.375 L 10.859375 -16.953125 C 12.535156 -20.304688 15.191406 -21.984375 18.828125 -21.984375 C 21.585938 -21.984375 23.753906 -20.992188 25.328125 -19.015625 C 26.898438 -17.035156 27.6875 -14.300781 27.6875 -10.8125 L 27.6875 0 L 18.609375 0 L 18.609375 -11.71875 C 18.609375 -12.957031 18.335938 -13.910156 17.796875 -14.578125 C 17.265625 -15.242188 16.523438 -15.578125 15.578125 -15.578125 C 14.878906 -15.578125 14.195312 -15.351562 13.53125 -14.90625 C 12.875 -14.457031 12.335938 -13.8125 11.921875 -12.96875 C 11.503906 -12.132812 11.296875 -11.1875 11.296875 -10.125 L 11.296875 0 L 2.15625 0 Z M 2.15625 -21.375 "/></g></g></g><g fill="#aa1e2a" fill-opacity="1"><g transform="translate(330.02719, 58.028952)"><g><path d="M 2.15625 -28.515625 L 11.296875 -29.859375 L 11.296875 -17.21875 C 11.929688 -18.75 12.890625 -19.925781 14.171875 -20.75 C 15.453125 -21.570312 17.003906 -21.984375 18.828125 -21.984375 C 21.585938 -21.984375 23.753906 -20.992188 25.328125 -19.015625 C 26.898438 -17.035156 27.6875 -14.300781 27.6875 -10.8125 L 27.6875 0 L 18.609375 0 L 18.609375 -11.71875 C 18.609375 -12.957031 18.335938 -13.910156 17.796875 -14.578125 C 17.265625 -15.242188 16.523438 -15.578125 15.578125 -15.578125 C 14.878906 -15.578125 14.195312 -15.351562 13.53125 -14.90625 C 12.875 -14.457031 12.335938 -13.8125 11.921875 -12.96875 C 11.503906 -12.132812 11.296875 -11.1875 11.296875 -10.125 L 11.296875 0 L 2.15625 0 Z M 2.15625 -28.515625 "/></g></g></g></svg>